<?xml version="1.0" encoding="utf-8"?>
<!-- Generator: Adobe Illustrator 13.0.0, SVG Export Plug-In  -->
<!DOCTYPE svg PUBLIC "-//W3C//DTD SVG 1.1//EN" "http://www.w3.org/Graphics/SVG/1.1/DTD/svg11.dtd" [
	<!ENTITY ns_flows "http://ns.adobe.com/Flows/1.0/">
]>
<svg version="1.1"
	 xmlns="http://www.w3.org/2000/svg" xmlns:xlink="http://www.w3.org/1999/xlink" xmlns:a="http://ns.adobe.com/AdobeSVGViewerExtensions/3.0/"
	 x="0px" y="0px" width="800px" height="800px" viewBox="-69.868 -38.938 800 800" enable-background="new -69.868 -38.938 800 800"
	 xml:space="preserve">
<defs>
</defs>
<path d="M70.175,643.351l10.718,10.851c-8.235,8.232-19.607,13.332-32.288,13.332c-25.229,0-45.884-18.3-45.884-47.061
	c0-27.582,19.085-47.059,45.884-47.059c12.68,0,24.053,5.097,32.288,13.463l-10.718,10.72c-5.491-5.489-13.203-8.89-21.569-8.89
	c-18.825,0-30.327,13.335-30.327,31.766c0,19.608,13.463,31.768,30.327,31.768C56.972,652.24,64.684,648.84,70.175,643.351z"/>
<path d="M14.293,656.731C5.434,648.042-0.012,635.504,0,620.473l0,0c-0.009-14.419,5.008-26.923,13.666-35.778l0,0
	c8.643-8.863,20.879-14.015,34.94-14.005l0,0c13.417-0.007,25.507,5.41,34.226,14.277l0,0l1.898,1.922l-14.555,14.558l-1.925-1.925
	c-4.991-4.991-12.022-8.096-19.644-8.091l0,0c-8.775,0.016-15.525,3.05-20.227,8.098l0,0c-4.691,5.06-7.374,12.282-7.379,20.944l0,0
	c0.124,18.281,12.098,28.915,27.605,29.042l0,0c7.622,0.004,14.653-3.104,19.644-8.091l0,0l1.936-1.936l14.548,14.719l-1.916,1.918
	c-8.716,8.721-20.794,14.132-34.212,14.132l0,0C35.335,670.26,23.144,665.428,14.293,656.731L14.293,656.731z M5.445,620.473
	c0.097,27.362,19.273,44.223,43.161,44.334l0,0c10.96,0,20.844-4.032,28.388-10.68l0,0l-6.913-6.998
	c-5.789,4.891-13.346,7.833-21.475,7.835l0,0c-9.084,0.005-17.408-3.3-23.418-9.335l0,0c-6.017-6.024-9.645-14.732-9.632-25.156l0,0
	c-0.006-9.772,3.063-18.434,8.831-24.646l0,0c5.755-6.23,14.169-9.86,24.219-9.847l0,0c8.134,0.004,15.697,2.949,21.488,7.845l0,0
	l6.905-6.903c-7.542-6.753-17.424-10.782-28.393-10.789l0,0C23.207,576.246,5.569,594.188,5.445,620.473L5.445,620.473z"/>
<path d="M134.874,667.401c-60.395,0-60.264-93.856,0-93.856C194.876,573.545,195.005,667.401,134.874,667.401z M134.874,588.446
	c-39.479,0-39.61,64.185,0,64.185C174.482,652.631,174.482,588.446,134.874,588.446z"/>
<path d="M134.874,670.124v-2.725v-2.726c14.311-0.021,24.681-5.489,31.721-13.694l0,0c7.019-8.212,10.609-19.317,10.605-30.473l0,0
	c0.003-11.165-3.594-22.29-10.618-30.521l0,0c-7.042-8.219-17.416-13.694-31.708-13.716l0,0c-14.364,0.021-24.789,5.5-31.862,13.723
	l0,0c-7.058,8.229-10.669,19.353-10.663,30.514l0,0c-0.006,11.152,3.598,22.257,10.646,30.47l0,0
	c7.07,8.204,17.495,13.676,31.878,13.703l0,0v2.72V670.124c-15.799,0.025-28.002-6.224-36.01-15.604l0,0
	c-8.028-9.371-11.96-21.712-11.964-34.014l0,0c0.003-12.314,3.947-24.673,11.974-34.057l0,0c8.014-9.392,20.213-15.656,36-15.63l0,0
	c15.72-0.026,27.875,6.241,35.85,15.634l0,0c7.994,9.385,11.917,21.742,11.921,34.053l0,0c-0.004,12.298-3.915,24.637-11.909,34.01
	l0,0c-7.958,9.361-20.074,15.607-35.763,15.607l0,0C134.94,670.124,134.906,670.124,134.874,670.124L134.874,670.124z
	 M134.874,655.355c-10.639,0.024-18.964-4.41-24.357-11.014l0,0c-5.407-6.595-8.019-15.206-8.027-23.768l0,0
	c0.008-8.583,2.627-17.204,8.04-23.815l0,0c5.396-6.614,13.72-11.064,24.345-11.038l0,0v2.726v2.721
	c-9.132,0.025-15.638,3.615-20.133,9.05l0,0c-4.479,5.439-6.809,12.879-6.806,20.357l0,0c-0.003,7.463,2.319,14.884,6.792,20.311
	l0,0c4.491,5.417,10.992,8.995,20.147,9.021l0,0c9.155-0.025,15.676-3.612,20.174-9.035l0,0c4.483-5.431,6.811-12.865,6.806-20.336
	l0,0c0.004-7.473-2.323-14.901-6.806-20.332l0,0c-4.498-5.427-11.019-9.01-20.174-9.035l0,0v-2.721v-2.726
	c10.643-0.026,18.979,4.413,24.379,11.02l0,0c5.423,6.603,8.043,15.219,8.047,23.794l0,0c-0.004,8.577-2.625,17.192-8.047,23.794
	l0,0c-5.384,6.591-13.687,11.027-24.286,11.027l0,0C134.937,655.355,134.906,655.355,134.874,655.355L134.874,655.355z"/>
<path d="M270.424,666.226h-15.426l-45.49-65.098v65.098h-15.294v-91.504h15.425l45.622,65.098v-65.098h15.163V666.226z"/>
<path d="M253.576,668.949l-41.345-59.171v59.171h-20.743v-96.953h19.564l41.484,59.191v-59.191h20.611v94.228v2.726H253.576
	L253.576,668.949z M270.424,666.224v-2.722V666.224L270.424,666.224z M256.418,663.502h11.281v-86.059h-9.716v71.006l-49.761-71.01
	h-11.29v86.058h9.85v-71.021L256.418,663.502L256.418,663.502z"/>
<path d="M352.247,643.351l10.72,10.851c-8.236,8.232-19.609,13.332-32.29,13.332c-25.23,0-45.884-18.3-45.884-47.061
	c0-27.582,19.088-47.059,45.884-47.059c12.68,0,24.053,5.097,32.29,13.463l-10.72,10.72c-5.491-5.489-13.204-8.89-21.57-8.89
	c-18.824,0-30.327,13.335-30.327,31.766c0,19.608,13.464,31.768,30.327,31.768C339.043,652.24,346.756,648.84,352.247,643.351z"/>
<path d="M296.367,656.731c-8.863-8.689-14.31-21.228-14.297-36.259l0,0c-0.007-14.419,5.014-26.923,13.665-35.778l0,0
	c8.646-8.863,20.885-14.015,34.94-14.005l0,0c13.417-0.007,25.506,5.41,34.231,14.277l0,0l1.894,1.922l-14.555,14.558l-1.925-1.925
	c-4.991-4.991-12.022-8.096-19.645-8.091l0,0c-8.775,0.016-15.521,3.05-20.227,8.098l0,0c-4.69,5.06-7.369,12.282-7.376,20.944l0,0
	c0.127,18.281,12.096,28.915,27.603,29.042l0,0c7.623,0.004,14.654-3.104,19.645-8.091l0,0l1.936-1.936l14.551,14.719l-1.916,1.918
	c-8.719,8.721-20.798,14.132-34.215,14.132l0,0C317.406,670.26,305.213,665.428,296.367,656.731L296.367,656.731z M287.515,620.473
	c0.1,27.362,19.273,44.223,43.161,44.337l0,0c10.955-0.001,20.843-4.033,28.389-10.682l0,0l-6.914-6.999
	c-5.788,4.891-13.346,7.832-21.475,7.832l0,0c-9.08,0.008-17.404-3.297-23.414-9.332l0,0c-6.021-6.024-9.646-14.732-9.636-25.156
	l0,0c-0.003-9.772,3.063-18.434,8.833-24.646l0,0c5.752-6.23,14.167-9.86,24.217-9.847l0,0c8.134,0.004,15.698,2.949,21.488,7.845
	l0,0l6.905-6.903c-7.542-6.753-17.424-10.782-28.393-10.785l0,0C305.281,576.246,287.639,594.188,287.515,620.473L287.515,620.473z"
	/>
<path d="M390.67,590.016v22.877h38.042v15.162H390.67v22.877h45.753v15.294h-61.048v-91.504h61.048v15.294H390.67z"/>
<path d="M372.648,668.947v-96.954h66.498v20.744h-45.755l-0.004,17.429h38.043v20.611h-38.043v17.428h45.759v20.742H372.648
	L372.648,668.947z M378.098,663.5h55.6v-9.847h-45.751V625.33l38.04-0.005v-9.711h-38.04v-25.599v-2.725h45.751v-9.85h-55.6V663.5
	L378.098,663.5z M390.67,592.737v-2.722V592.737L390.67,592.737z"/>
<path d="M510.143,601.518c0,26.799-30.588,26.799-30.588,26.799H464.26v38.171h-15.295v-91.766h30.59
	C479.555,574.722,510.143,574.722,510.143,601.518z M494.848,601.518c0-11.502-15.293-11.502-15.293-11.502H464.26v23.006h15.295
	C479.555,613.021,494.848,613.021,494.848,601.518z"/>
<path d="M446.239,669.208v-97.212h33.315c0.2,0.013,8.125-0.02,16.387,3.578l0,0c8.236,3.479,17.014,11.392,16.924,25.943l0,0
	c0.09,14.547-8.688,22.46-16.924,25.942l0,0c-8.262,3.599-16.187,3.564-16.387,3.578l0,0h-12.572v38.17H446.239L446.239,669.208z
	 M451.685,663.761h9.85V625.59h18.021c0,0,0.369,0.003,1.142-0.045l0,0c0.769-0.05,1.891-0.148,3.245-0.345l0,0
	c2.693-0.393,6.295-1.187,9.812-2.729l0,0c7.058-3.217,13.576-8.704,13.663-20.953l0,0c-0.073-10.762-5.079-16.194-11.052-19.656
	l0,0c-5.978-3.39-12.967-4.217-15.668-4.372l0,0c-0.772-0.05-1.142-0.05-1.142-0.046l0,0l-27.87-0.004V663.761L451.685,663.761z
	 M461.534,615.743v-28.452h18.021c0.173,0.013,4.225-0.019,8.604,1.612l0,0c4.302,1.493,9.472,5.457,9.412,12.614l0,0
	c0.06,7.151-5.11,11.12-9.412,12.612l0,0c-4.379,1.631-8.431,1.601-8.604,1.613l0,0H461.534L461.534,615.743z M466.979,610.293
	h12.576c0-0.007,0.763,0.005,2.047-0.154l0,0c1.285-0.163,3.009-0.49,4.64-1.106l0,0c3.346-1.383,5.824-3.166,5.88-7.515l0,0h0.004
	c-0.06-3.352-1.437-4.973-3.563-6.389l0,0c-2.128-1.35-5.028-2.004-6.96-2.234l0,0c-1.284-0.163-2.047-0.158-2.047-0.158l0,0
	h-12.576V610.293L466.979,610.293z"/>
<path d="M567.393,588.707h-19.215v77.519h-15.164v-77.519h-19.217v-13.985h53.596V588.707z"/>
<path d="M530.288,668.947l-0.003-77.517H511.07v-19.435h59.046v16.711v2.724l-19.218-0.005v77.521H530.288L530.288,668.947z
	 M516.518,585.98h19.218v77.517h9.717V585.98h19.215v-8.537h-48.149V585.98L516.518,585.98z M567.393,588.707v-2.727V588.707
	L567.393,588.707z"/>
<path d="M618.369,667.401c-60.396,0-60.263-93.856,0-93.856C678.371,573.545,678.501,667.401,618.369,667.401z M618.369,588.446
	c-39.479,0-39.61,64.185,0,64.185C657.978,652.631,657.978,588.446,618.369,588.446z"/>
<path d="M618.368,670.123v-2.722v-2.724c14.308-0.028,24.68-5.493,31.719-13.697l0,0c7.021-8.213,10.61-19.319,10.603-30.474l0,0
	c0.008-11.164-3.589-22.29-10.615-30.521l0,0c-7.042-8.217-17.416-13.693-31.706-13.72l0,0
	c-14.363,0.026-24.791,5.506-31.865,13.726l0,0c-7.055,8.229-10.667,19.351-10.66,30.515l0,0
	c-0.007,11.15,3.596,22.257,10.65,30.468l0,0c7.067,8.206,17.492,13.675,31.875,13.703l0,0v2.724V670.123
	c-15.803,0.026-28.002-6.224-36.01-15.603l0,0c-8.032-9.371-11.958-21.715-11.965-34.014l0,0
	c0.007-12.316,3.945-24.671,11.974-34.057l0,0c8.012-9.395,20.213-15.653,36.001-15.632l0,0
	c15.723-0.021,27.874,6.242,35.851,15.636l0,0c7.994,9.385,11.914,21.74,11.92,34.053l0,0c-0.006,12.299-3.92,24.64-11.911,34.01
	l0,0c-7.956,9.359-20.071,15.607-35.759,15.606l0,0C618.436,670.123,618.399,670.123,618.368,670.123L618.368,670.123z
	 M618.368,655.352c-10.639,0.028-18.968-4.408-24.356-11.008l0,0c-5.413-6.599-8.022-15.206-8.026-23.771l0,0
	c0.004-8.582,2.626-17.203,8.038-23.814l0,0c5.395-6.614,13.722-11.066,24.345-11.038l0,0v2.726v2.721
	c-9.131,0.027-15.639,3.615-20.136,9.05l0,0c-4.477,5.439-6.81,12.878-6.8,20.356l0,0c-0.01,7.464,2.317,14.885,6.787,20.31l0,0
	c4.491,5.416,10.994,8.997,20.148,9.022l0,0c9.156-0.025,15.675-3.609,20.174-9.035l0,0c4.482-5.436,6.811-12.865,6.808-20.336l0,0
	c0.003-7.474-2.325-14.901-6.808-20.332l0,0c-4.502-5.424-11.018-9.008-20.174-9.035l0,0v-2.721v-2.726
	c10.646-0.028,18.98,4.411,24.378,11.02l0,0c5.423,6.603,8.045,15.219,8.049,23.794l0,0c-0.004,8.577-2.626,17.191-8.046,23.795l0,0
	c-5.384,6.587-13.686,11.025-24.286,11.025l0,0C618.431,655.354,618.399,655.354,618.368,655.352L618.368,655.352z"/>
<rect x="214.847" y="219.89" transform="matrix(-0.2273 -0.9738 0.9738 -0.2273 326.7003 804.0211)" width="534.939" height="105.029"/>
<path d="M307.29,439.781c-72.434,0-130.382-57.95-130.382-130.387c0-72.434,57.948-130.38,130.382-130.38
	c32.481,0,62.026,11.677,84.763,31.061L361.778,80.406c-17.505-4.189-35.748-6.421-54.489-6.421
	c-129.478,0-235.417,105.931-235.417,235.409S177.812,544.809,307.29,544.809c56.958,0,109.357-20.509,150.19-54.496
	l-30.226-129.462C407.437,407.424,361.414,439.781,307.29,439.781z"/>
<path d="M47.273,713.421H28.598v-5.624h18.675V713.421z"/>
<path d="M94.332,729.285h-6.208v-22.816L77.46,729.285h-5.836l-11.354-23.291v23.291h-6.207v-37.193h6.313l14.114,28.915
	l13.528-28.915h6.313V729.285z"/>
<path d="M128.18,692.145l-14.856,38.094l-14.802-38.094h6.685l8.118,21.912l8.171-21.912H128.18z"/>
<path d="M158.526,720l4.351,4.402c-3.342,3.343-7.958,5.412-13.104,5.412c-10.241,0-18.623-7.426-18.623-19.101
	c0-11.194,7.746-19.1,18.623-19.1c5.146,0,9.762,2.071,13.104,5.466l-4.351,4.351c-2.229-2.229-5.359-3.609-8.754-3.609
	c-7.64,0-12.309,5.412-12.309,12.893c0,7.96,5.464,12.894,12.309,12.894C153.167,723.607,156.298,722.229,158.526,720z"/>
<path d="M198.739,713.794h-5.04v15.491h-6.208v-37.141h12.363c0,0,12.415,0,12.415,10.822c0,5.998-3.82,8.651-7.162,9.868
	l7.586,16.45h-6.844L198.739,713.794z M193.699,707.637h6.154c0,0,6.208,0,6.208-4.67c0-4.613-6.208-4.613-6.208-4.613h-6.154
	V707.637z"/>
<path d="M225.53,698.354v9.283h15.439v6.157H225.53v9.283h18.57v6.208h-24.776v-37.141H244.1v6.209H225.53z"/>
<path d="M267.655,724.984h-13.051l-1.591,4.301h-6.686l14.802-38.201l14.856,38.201H269.3L267.655,724.984z M256.62,719.628h9.02
	l-4.51-12.893L256.62,719.628z"/>
<path d="M286.381,692.145c9.02,0,21.701,2.07,21.701,18.569c0,15.864-12.468,18.571-21.701,18.571h-6.207v-37.141H286.381z
	 M301.822,710.714c0-14.855-15.44-12.52-15.44-12.52v25.041C286.381,723.235,301.822,725.359,301.822,710.714z"/>
<path d="M345.218,692.145l-13.951,19.577v17.563h-6.208v-17.563l-13.954-19.577h7.587l9.498,13.264l9.442-13.264H345.218z"/>
<path d="M366.489,718.991h6.209c0.104,3.077,2.652,4.616,5.411,4.616c2.865,0,5.411-1.804,5.411-4.721
	c0-3.131-2.917-5.093-5.411-5.201c-0.317,0-2.864,0-5.571-1.221c-3.873-1.803-6.049-5.094-6.049-9.498
	c0-7.055,5.624-11.353,11.62-11.353c6.419,0,11.353,4.353,11.46,10.665h-6.156c-0.104-3.077-2.492-4.458-5.304-4.458
	c-2.918,0-5.411,1.698-5.411,5.146c0,3.078,2.652,4.724,5.411,4.724c0.266,0,2.865,0,5.519,1.22
	c3.926,1.804,6.047,5.572,6.047,9.977c0,7.107-5.57,10.928-11.565,10.928C371.689,729.654,366.597,725.942,366.489,718.991z"/>
<path d="M413.496,729.763c-24.512,0-24.459-38.095,0-38.095C437.849,691.668,437.902,729.763,413.496,729.763z M413.496,697.717
	c-16.024,0-16.075,26.049,0,26.049C429.572,723.766,429.572,697.717,413.496,697.717z"/>
<path d="M458.856,723.077v6.208h-19.949v-37.141h6.209v30.933H458.856z"/>
<path d="M464.374,717.399v-25.255h6.209v25.255c0.316,4.299,3.766,6.208,7.693,6.208c3.873,0,7.743-2.068,7.743-6.208v-25.255h6.208
	v25.255c0,7.905-6.049,12.415-13.951,12.415C470.635,729.814,464.374,725.04,464.374,717.399z"/>
<path d="M519.232,697.821h-7.798v31.464h-6.156v-31.464h-7.797v-5.677h21.751V697.821z"/>
<path d="M524.535,692.145h6.208v37.141h-6.208V692.145z"/>
<path d="M556.103,729.763c-24.512,0-24.458-38.095,0-38.095C580.456,691.668,580.511,729.763,556.103,729.763z M556.103,697.717
	c-16.021,0-16.073,26.049,0,26.049C572.179,723.766,572.179,697.717,556.103,697.717z"/>
<path d="M612.448,729.285h-6.263l-18.464-26.422v26.422h-6.207v-37.141h6.263l18.515,26.422v-26.422h6.156V729.285z"/>
<path d="M637.542,713.421h-18.676v-5.624h18.676V713.421z"/>
</svg>
